<mxfile host="app.diagrams.net" modified="2024-06-25T17:55:20.498Z" agent="Mozilla/5.0 (Macintosh; Intel Mac OS X 10_15_7) AppleWebKit/537.36 (KHTML, like Gecko) Chrome/125.0.0.0 Safari/537.36" etag="Qzttteo3d1pDlkmaz5wE" version="24.6.2" type="device">
  <diagram name="Pagina-1" id="3507ucfsGJ6XeyO1zEs7">
    <mxGraphModel dx="3050" dy="2140" grid="1" gridSize="10" guides="1" tooltips="1" connect="1" arrows="1" fold="1" page="1" pageScale="1" pageWidth="827" pageHeight="1169" math="0" shadow="0">
      <root>
        <mxCell id="0" />
        <mxCell id="1" parent="0" />
        <mxCell id="Hdx10-VTa4n5IoU21o0i-1" value="&lt;font face=&quot;Lucida Console&quot;&gt;Streaming Service&lt;/font&gt;" style="rounded=0;whiteSpace=wrap;html=1;" vertex="1" parent="1">
          <mxGeometry x="120" y="90" width="120" height="60" as="geometry" />
        </mxCell>
        <mxCell id="Hdx10-VTa4n5IoU21o0i-2" value="&lt;font face=&quot;Lucida Console&quot;&gt;Upper Body Module&lt;/font&gt;" style="rounded=0;whiteSpace=wrap;html=1;" vertex="1" parent="1">
          <mxGeometry x="120" y="180" width="120" height="60" as="geometry" />
        </mxCell>
        <mxCell id="Hdx10-VTa4n5IoU21o0i-3" value="&lt;font face=&quot;Lucida Console&quot;&gt;Joints Module&lt;/font&gt;" style="rounded=0;whiteSpace=wrap;html=1;" vertex="1" parent="1">
          <mxGeometry x="120" y="270" width="120" height="60" as="geometry" />
        </mxCell>
        <mxCell id="Hdx10-VTa4n5IoU21o0i-12" style="edgeStyle=orthogonalEdgeStyle;rounded=0;orthogonalLoop=1;jettySize=auto;html=1;exitX=1;exitY=0.25;exitDx=0;exitDy=0;" edge="1" parent="1">
          <mxGeometry relative="1" as="geometry">
            <mxPoint x="580" y="100.00069767441865" as="targetPoint" />
            <mxPoint x="500" y="100.21" as="sourcePoint" />
            <Array as="points">
              <mxPoint x="540" y="100" />
            </Array>
          </mxGeometry>
        </mxCell>
        <mxCell id="Hdx10-VTa4n5IoU21o0i-13" value="&lt;font face=&quot;Lucida Console&quot;&gt;Detections&lt;/font&gt;" style="edgeLabel;html=1;align=center;verticalAlign=middle;resizable=0;points=[];labelBackgroundColor=none;" vertex="1" connectable="0" parent="Hdx10-VTa4n5IoU21o0i-12">
          <mxGeometry x="-0.2277" y="-1" relative="1" as="geometry">
            <mxPoint x="9" y="-11" as="offset" />
          </mxGeometry>
        </mxCell>
        <mxCell id="Hdx10-VTa4n5IoU21o0i-4" value="&lt;font face=&quot;Lucida Console&quot;&gt;PSG&lt;/font&gt;" style="rounded=0;whiteSpace=wrap;html=1;" vertex="1" parent="1">
          <mxGeometry x="380" y="90" width="120" height="60" as="geometry" />
        </mxCell>
        <mxCell id="Hdx10-VTa4n5IoU21o0i-5" value="" style="endArrow=classic;html=1;rounded=0;exitX=1;exitY=0.25;exitDx=0;exitDy=0;entryX=0;entryY=0.25;entryDx=0;entryDy=0;" edge="1" parent="1">
          <mxGeometry width="50" height="50" relative="1" as="geometry">
            <mxPoint x="240" y="100" as="sourcePoint" />
            <mxPoint x="380" y="100" as="targetPoint" />
          </mxGeometry>
        </mxCell>
        <mxCell id="Hdx10-VTa4n5IoU21o0i-6" value="&lt;font face=&quot;Lucida Console&quot;&gt;RGB frame&lt;/font&gt;" style="edgeLabel;html=1;align=center;verticalAlign=middle;resizable=0;points=[];labelBackgroundColor=none;" vertex="1" connectable="0" parent="Hdx10-VTa4n5IoU21o0i-5">
          <mxGeometry x="-0.0455" y="1" relative="1" as="geometry">
            <mxPoint x="-7" y="-9" as="offset" />
          </mxGeometry>
        </mxCell>
        <mxCell id="Hdx10-VTa4n5IoU21o0i-8" value="" style="endArrow=classic;html=1;rounded=0;exitX=1;exitY=0.25;exitDx=0;exitDy=0;entryX=0;entryY=0.25;entryDx=0;entryDy=0;" edge="1" parent="1" target="Hdx10-VTa4n5IoU21o0i-11">
          <mxGeometry width="50" height="50" relative="1" as="geometry">
            <mxPoint x="240" y="140" as="sourcePoint" />
            <mxPoint x="360" y="140" as="targetPoint" />
            <Array as="points">
              <mxPoint x="350" y="140" />
              <mxPoint x="350" y="185" />
            </Array>
          </mxGeometry>
        </mxCell>
        <mxCell id="Hdx10-VTa4n5IoU21o0i-10" value="&lt;font face=&quot;Lucida Console&quot;&gt;Depth frame&lt;/font&gt;" style="edgeLabel;html=1;align=center;verticalAlign=middle;resizable=0;points=[];labelBackgroundColor=none;" vertex="1" connectable="0" parent="Hdx10-VTa4n5IoU21o0i-8">
          <mxGeometry x="-0.0027" y="1" relative="1" as="geometry">
            <mxPoint x="-32" y="-9" as="offset" />
          </mxGeometry>
        </mxCell>
        <mxCell id="Hdx10-VTa4n5IoU21o0i-11" value="&lt;font face=&quot;Lucida Console&quot;&gt;Point Cloud Manager&lt;/font&gt;" style="rounded=0;whiteSpace=wrap;html=1;" vertex="1" parent="1">
          <mxGeometry x="380" y="170" width="160" height="60" as="geometry" />
        </mxCell>
        <mxCell id="Hdx10-VTa4n5IoU21o0i-14" value="" style="endArrow=none;html=1;rounded=0;exitX=0.875;exitY=0;exitDx=0;exitDy=0;exitPerimeter=0;startArrow=classic;startFill=1;" edge="1" parent="1" source="Hdx10-VTa4n5IoU21o0i-11">
          <mxGeometry width="50" height="50" relative="1" as="geometry">
            <mxPoint x="380" y="240" as="sourcePoint" />
            <mxPoint x="520" y="100" as="targetPoint" />
          </mxGeometry>
        </mxCell>
        <mxCell id="Hdx10-VTa4n5IoU21o0i-15" value="&lt;font face=&quot;Lucida Console&quot;&gt;foreach Object Mask&lt;/font&gt;" style="edgeLabel;html=1;align=center;verticalAlign=middle;resizable=0;points=[];" vertex="1" connectable="0" parent="Hdx10-VTa4n5IoU21o0i-14">
          <mxGeometry x="-0.287" relative="1" as="geometry">
            <mxPoint x="50" y="-5" as="offset" />
          </mxGeometry>
        </mxCell>
      </root>
    </mxGraphModel>
  </diagram>
</mxfile>
